<svg xmlns="http://www.w3.org/2000/svg" version="1.1" xmlns:xlink="http://www.w3.org/1999/xlink" xmlns:svgjs="http://svgjs.dev/svgjs" width="1500" height="1500" viewBox="0 0 1500 1500"><rect width="1500" height="1500" fill="#000000"></rect><g transform="matrix(0.6666666666666666,0,0,0.6666666666666666,249.6953801809828,270.0556005398111)"><svg viewBox="0 0 257 247" data-background-color="#398378" preserveAspectRatio="xMidYMid meet" height="1441" width="1500" xmlns="http://www.w3.org/2000/svg" xmlns:xlink="http://www.w3.org/1999/xlink"><g id="tight-bounds" transform="matrix(1,0,0,1,0.07828729348742058,-0.09999999999999432)"><svg viewBox="0 0 256.84342541302516 247.2" height="247.2" width="256.84342541302516"><g><svg viewBox="0 0 395.5199999999999 380.6698335484888" height="247.2" width="256.84342541302516"><g transform="matrix(1,0,0,1,0,229.3705428787339)"><svg viewBox="0 0 395.5199999999999 151.29929066975487" height="151.29929066975487" width="395.5199999999999"><g id="textblocktransform"><svg viewBox="0 0 395.5199999999999 151.29929066975487" height="151.29929066975487" width="395.5199999999999" id="textblock"><g><svg viewBox="0 0 395.5199999999999 85.88303416328894" height="85.88303416328894" width="395.5199999999999"><g transform="matrix(1,0,0,1,0,0)"><svg width="395.5199999999999" viewBox="3.25 -37.5 172.69 37.5" height="85.88303416328894" data-palette-color="#31c48d"><path d="M17.55-24.65L20.95-24.65 20.95-14.15 17.55-14.15 17.55-17.7 10.5-17.7 10.5-3.4 23.3-3.4 23.3-9.25 26.7-9.25 26.7 0 3.25 0 3.25-3.4 6.4-3.4 6.4-34.1 3.25-34.1 3.25-37.5 26.7-37.5 26.7-28.25 23.3-28.25 23.3-34.1 10.5-34.1 10.5-21.1 17.55-21.1 17.55-24.65ZM35.6-34.1L32.45-34.1 32.45-37.5 40.15-37.5 50.75-15.65 61.25-37.5 68.95-37.5 68.95-34.1 65.8-34.1 65.8-3.4 68.95-3.4 68.95 0 58.45 0 58.45-3.4 61.7-3.4 61.7-29.15 52.25-9.7 49.1-9.7 39.7-29.3 39.7-3.4 42.95-3.4 42.95 0 32.45 0 32.45-3.4 35.6-3.4 35.6-34.1ZM89.75-24.65L93.15-24.65 93.15-14.15 89.75-14.15 89.75-17.7 82.7-17.7 82.7-3.4 95.5-3.4 95.5-9.25 98.9-9.25 98.9 0 75.45 0 75.45-3.4 78.6-3.4 78.6-34.1 75.45-34.1 75.45-37.5 98.9-37.5 98.9-28.25 95.5-28.25 95.5-34.1 82.7-34.1 82.7-21.1 89.75-21.1 89.75-24.65ZM130.14-3.4L132.94-3.4 132.94 0 123.04 0 123.04-3.4 125.74-3.4 117.19-17.15 111.89-13.9 111.89-3.4 115.14-3.4 115.14 0 104.64 0 104.64-3.4 107.79-3.4 107.79-34.1 104.64-34.1 104.64-37.5 122.49-37.5Q125.79-37.5 126.94-36.23 128.09-34.95 128.09-31.25L128.09-31.25 128.09-28.15Q128.09-26.25 127.74-25.15 127.39-24.05 126.49-23.18 125.59-22.3 124.09-21.4 122.59-20.5 120.29-19.1L120.29-19.1 130.14-3.4ZM111.89-34.1L111.89-17.9 124.44-25.65 124.44-34.1 111.89-34.1ZM144.94-34.1L144.94-3.4 148.19-3.4 148.19 0 137.69 0 137.69-3.4 140.84-3.4 140.84-34.1 137.69-34.1 137.69-37.5 148.19-37.5 148.19-34.1 144.94-34.1ZM172.54-3.4L172.54-9.25 175.94-9.25 175.94 0 160.59 0Q156.39 0 155.49-3.3L155.49-3.3Q155.19-4.25 155.19-5.35L155.19-5.35 155.19-32.1Q155.19-35.75 157.74-37L157.74-37Q158.69-37.5 160.09-37.5L160.09-37.5 175.94-37.5 175.94-28.25 172.54-28.25 172.54-34.1 159.29-34.1 159.29-3.4 172.54-3.4Z" opacity="1" transform="matrix(1,0,0,1,0,0)" fill="#ffffff" class="wordmark-text-0" data-fill-palette-color="primary" id="text-0"></path></svg></g></svg></g><g transform="matrix(1,0,0,1,0,106.15795733642153)"><svg viewBox="0 0 395.5199999999999 45.14133333333333" height="45.14133333333333" width="395.5199999999999"><g transform="matrix(1,0,0,1,0,0)"><svg width="395.5199999999999" viewBox="1.1 -38.05 463.45 52.9" height="45.14133333333333" data-palette-color="#adbfb8"><path d="M11.7-17.45L11.7-17.45Q8.8-15.4 8.8-11.35L8.8-11.35Q8.8-8.8 10.63-6.55 12.45-4.3 16.8-4.3 21.15-4.3 25.05-7.25 28.95-10.2 30.95-13.7L30.95-13.7 32.65-10.65Q26.2 0.3 14.7 0.3L14.7 0.3Q9 0.3 5.05-2.78 1.1-5.85 1.1-10L1.1-10Q1.1-17.25 7.55-20.5L7.55-20.5Q5.4-23.15 5.4-26.7L5.4-26.7Q5.4-31.35 9.43-34.7 13.45-38.05 18.75-38.05 24.05-38.05 26.93-35.35 29.8-32.65 29.8-28.25L29.8-28.25 25.05-28.25Q25.1-30.95 23.63-32.33 22.15-33.7 19.53-33.7 16.9-33.7 14.8-31.8L14.8-31.8Q12.45-29.75 12.45-27 12.45-24.25 13.95-22.25L13.95-22.25Q18.95-22.85 21.55-21.6L21.55-21.6Q23.15-20.85 23.15-19.23 23.15-17.6 21.33-16.95 19.5-16.3 16.95-16.3 14.4-16.3 11.7-17.45ZM25.7-16.55L26.15-20.85 45.25-20.85 44.8-16.55 25.7-16.55ZM59.9-34.8L59.9-34.8Q59.9-34.5 58.55-24.05L58.55-24.05 65.9-24.05 65.9-20.2 58.05-20.2 57.9-18.95Q63.75-14.05 63.75-8.25L63.75-8.25Q63.75-3.7 61.42-1.7 59.1 0.3 55.85 0.3 52.6 0.3 51.1-1.43 49.6-3.15 49.6-5.6L49.6-5.6Q49.6-6.15 49.7-6.8L49.7-6.8 51.25-20.1 51.05-20.2 47-20.2Q46.95-20.7 46.95-21.83 46.95-22.95 47.4-24.05L47.4-24.05 51.7-24.05 53.3-37.65Q54.35-38.05 56.1-38.05L56.1-38.05Q59.9-38.05 59.9-34.8ZM60.4-8.3L60.4-8.3Q60.4-11.75 57.4-15.1L57.4-15.1Q56.5-7.65 56.5-6.5L56.5-6.5Q56.5-4.25 57.95-4.25L57.95-4.25Q59-4.25 59.7-5.23 60.4-6.2 60.4-8.3ZM75.09-11.2Q78.19-11.85 79.72-13.7 81.24-15.55 81.24-17.28 81.24-19 80.32-19.63 79.39-20.25 78.29-20.25L78.29-20.25Q75.94-20.25 74.17-17.63 72.39-15 72.39-11.38 72.39-7.75 74.12-5.98 75.84-4.2 78.39-4.2L78.39-4.2Q82.14-4.2 85.59-6.8 89.04-9.4 91.19-13.6L91.19-13.6Q92.29-12.55 93.19-11L93.19-11Q91.54-7.25 87.34-3.65L87.34-3.65Q85.24-1.9 82.37-0.8 79.49 0.3 76.44 0.3L76.44 0.3Q71.44 0.3 68.54-2.75L68.54-2.75Q65.44-6.05 65.44-11.2 65.44-16.35 69.32-20.2 73.19-24.05 78.59-24.05L78.59-24.05Q82.44-24.05 84.84-22.38 87.24-20.7 87.29-17.85L87.29-17.85Q87.29-14 84.22-11.6 81.14-9.2 75.79-8.25L75.79-8.25 75.09-11.2ZM104.74-16.95L104.74-16.95Q104.74-20.2 101.84-20.2L101.84-20.2Q99.69-20.2 97.99-17.75L97.99-17.75Q96.19-15.1 96.19-11.55 96.19-8 97.77-6.08 99.34-4.15 102.09-4.15L102.09-4.15Q105.39-4.15 109.07-6.85 112.74-9.55 114.99-13.55L114.99-13.55Q115.99-12.8 116.94-10.8L116.94-10.8Q115.49-7.9 111.54-4.3L111.54-4.3Q109.49-2.4 106.44-1.1L106.44-1.1Q103.14 0.3 99.84 0.3L99.84 0.3Q95.39 0.3 92.32-2.75 89.24-5.8 89.24-10.7L89.24-10.7Q89.24-16.65 93.24-20.35 97.24-24.05 102.19-24.05L102.19-24.05Q106.04-24.05 108.29-22.45 110.54-20.85 110.54-18.25L110.54-18.25Q110.54-16.55 109.34-15.3L109.34-15.3Q107.14-13.1 103.99-13.1L103.99-13.1Q104.74-15.6 104.74-16.95ZM126.19-5.7L126.19-5.7 127.39-16.75Q127.39-18.1 126.69-19 125.99-19.9 124.44-19.9 122.89-19.9 121.81-18.68 120.74-17.45 120.24-15.45L120.24-15.45Q119.89-12.6 119.19-7.13 118.49-1.65 118.29 0L118.29 0 111.64 0Q115.24-30.65 115.99-37.65L115.99-37.65Q117.04-38.05 118.84-38.05L118.84-38.05Q122.74-38.05 122.74-35.75L122.74-35.75 122.74-35.45Q121.89-27.6 120.94-21.65L120.94-21.65Q123.59-24.05 126.94-24.05 130.29-24.05 132.24-22.35 134.19-20.65 134.19-18.05L134.19-18.05Q134.19-17.35 133.89-15.45L133.89-15.45Q132.74-7.95 132.74-6.65L132.74-6.65Q132.74-4.3 134.29-4.3L134.29-4.3Q135.59-4.3 137.06-6.03 138.54-7.75 139.44-11.35L139.44-11.35Q141.14-9.55 141.49-8.5L141.49-8.5Q138.89 0.2 132.29 0.2L132.29 0.2Q129.19 0.2 127.69-1.7 126.19-3.6 126.19-5.7ZM159.68-34.8L159.68-34.8Q159.68-34.5 158.33-24.05L158.33-24.05 165.68-24.05 165.68-20.2 157.83-20.2 157.68-18.95Q163.53-14.05 163.53-8.25L163.53-8.25Q163.53-3.7 161.21-1.7 158.88 0.3 155.63 0.3 152.38 0.3 150.88-1.43 149.38-3.15 149.38-5.6L149.38-5.6Q149.38-6.15 149.48-6.8L149.48-6.8 151.03-20.1 150.83-20.2 146.78-20.2Q146.73-20.7 146.73-21.83 146.73-22.95 147.18-24.05L147.18-24.05 151.48-24.05 153.08-37.65Q154.13-38.05 155.88-38.05L155.88-38.05Q159.68-38.05 159.68-34.8ZM160.18-8.3L160.18-8.3Q160.18-11.75 157.18-15.1L157.18-15.1Q156.28-7.65 156.28-6.5L156.28-6.5Q156.28-4.25 157.73-4.25L157.73-4.25Q158.78-4.25 159.48-5.23 160.18-6.2 160.18-8.3ZM178.68-24.05L178.68-24.05Q183.28-24.05 186.36-21.1 189.43-18.15 189.43-13.9L189.43-13.9Q189.43-7.45 185.66-3.58 181.88 0.3 176.53 0.3 171.18 0.3 168.06-2.75 164.93-5.8 164.93-10.3L164.93-10.3Q164.93-16.6 168.78-20.3L168.78-20.3Q172.68-24.05 178.68-24.05ZM177.71-20Q175.33-20 173.73-17.3 172.13-14.6 171.98-10.5L171.98-10.5Q171.98-7.6 173.16-5.7 174.33-3.8 176.73-3.8 179.13-3.8 180.75-6.45 182.38-9.1 182.38-12.5 182.38-15.9 181.23-17.9L181.23-17.9Q180.08-20 177.71-20ZM211.18 14.85L211.18 14.85Q208.33 14.85 206.28 13.13 204.23 11.4 204.23 8.1L204.23 8.1Q204.23 4.05 208.33 0.2L208.33 0.2Q205.43-0.05 203.68-1.7 201.93-3.35 201.93-6.35L201.93-6.35Q201.93-7.75 202.28-10.55 202.63-13.35 203.03-16.6 203.43-19.85 203.88-23.5L203.88-23.5Q205.43-24.05 206.73-24.05 208.03-24.05 208.68-23.95 209.33-23.85 209.93-23.2 210.53-22.55 210.53-21.35L210.53-21.35 208.88-8.6Q208.78-7.8 208.78-7.5L208.78-7.5Q208.78-4.55 211.48-4.55L211.48-4.55Q213.93-4.55 215.48-6.85L215.48-6.85Q215.63-8 216.23-13.48 216.83-18.95 217.23-22L217.23-22Q217.68-22.95 219.1-23.5 220.53-24.05 221.43-24.05L221.43-24.05Q223.03-24.05 224.33-23.65L224.33-23.65 221.98-5.2Q227.83-4.15 228.98 2.85L228.98 2.85Q228.78 3.8 227.08 5.85L227.08 5.85Q226.08-0.4 221.58-1.75L221.58-1.75 220.78 4.5Q220.23 9 217.93 11.93 215.63 14.85 211.18 14.85ZM208.13 7.15Q208.13 8.8 208.93 9.6 209.73 10.4 211.05 10.4 212.38 10.4 213.08 9.3 213.78 8.2 214.18 4.9L214.18 4.9 214.83-0.6Q208.28 2.8 208.13 7.15L208.13 7.15ZM239.97-24.05L239.97-24.05Q244.57-24.05 247.65-21.1 250.72-18.15 250.72-13.9L250.72-13.9Q250.72-7.45 246.95-3.58 243.17 0.3 237.82 0.3 232.47 0.3 229.35-2.75 226.22-5.8 226.22-10.3L226.22-10.3Q226.22-16.6 230.07-20.3L230.07-20.3Q233.97-24.05 239.97-24.05ZM239-20Q236.62-20 235.02-17.3 233.42-14.6 233.27-10.5L233.27-10.5Q233.27-7.6 234.45-5.7 235.62-3.8 238.02-3.8 240.42-3.8 242.05-6.45 243.67-9.1 243.67-12.5 243.67-15.9 242.52-17.9L242.52-17.9Q241.37-20 239-20ZM275.17-23.55L275.17-23.55Q273.12-7.35 273.12-6.3L273.12-6.3Q273.12-4.3 274.57-4.3L274.57-4.3Q275.87-4.3 277.4-6.08 278.92-7.85 279.82-11.4L279.82-11.4Q281.47-9.6 281.82-8.6L281.82-8.6Q280.67-3.75 278.17-1.75 275.67 0.25 273.02 0.25L273.02 0.25Q268.67 0.25 267.17-3.1L267.17-3.1Q264.57 0.25 260.22 0.25L260.22 0.25Q256.62 0.25 254.67-1.55 252.72-3.35 252.72-6.25L252.72-6.25Q252.72-6.95 252.97-8.7L252.97-8.7Q254.12-18 254.72-23.5L254.72-23.5Q256.27-24.05 257.57-24.05 258.87-24.05 259.52-23.95 260.17-23.85 260.77-23.2 261.37-22.55 261.37-21.35L261.37-21.35 259.72-8.6Q259.62-8 259.62-7.5L259.62-7.5Q259.62-4.55 262.32-4.55L262.32-4.55Q264.82-4.55 266.47-7L266.47-7Q266.47-7.55 266.57-8.75L266.57-8.75 268.22-22.05Q268.57-22.9 269.72-23.48 270.87-24.05 272.6-24.05 274.32-24.05 275.17-23.55ZM292.97-17.5L292.97-17.5Q292.97-19.7 290.94-19.7 288.92-19.7 287.72-17.1L287.72-17.1Q293.12-12.85 293.12-7.55L293.12-7.55Q293.12-3.7 290.97-1.7 288.82 0.3 285.57 0.3 282.32 0.3 280.82-1.73 279.32-3.75 279.32-6.85L279.32-6.85Q279.32-7.8 279.37-8.25L279.37-8.25 281.12-23.5Q282.92-24.05 284.77-24.05L284.77-24.05Q287.82-24.05 287.82-21.8L287.82-21.8 287.82-21.7Q289.82-24.05 292.92-24.05L292.92-24.05Q295.17-24.05 296.42-23.03 297.67-22 297.67-20.3 297.67-18.6 296.39-17.53 295.12-16.45 293.07-16.45L293.07-16.45Q292.97-16.45 292.87-16.45L292.87-16.45Q292.97-17 292.97-17.5ZM289.87-7.8Q289.87-10.7 286.87-13.6L286.87-13.6Q285.97-6.4 285.97-6.35L285.97-6.35Q285.97-4.25 287.67-4.25L287.67-4.25Q289.87-4.25 289.87-7.8L289.87-7.8ZM330.66-15.3L330.66-15.3Q334.61-12.4 334.61-8.45 334.61-4.5 331.51-2.1 328.41 0.3 323.71 0.3L323.71 0.3Q320.66 0.3 318.64-1.23 316.61-2.75 316.61-5 316.61-7.25 318.11-8.58 319.61-9.9 321.86-10.2L321.86-10.2Q320.81-8.7 320.81-7.33 320.81-5.95 321.76-5.1L321.76-5.1Q322.71-4.25 324.16-4.25 325.61-4.25 326.56-5.33 327.51-6.4 327.51-7.8L327.51-7.8Q327.51-10.1 325.36-11.9L325.36-11.9Q324.06-12.95 322.56-13.88 321.06-14.8 320.96-14.85L320.96-14.85Q320.76-15 320.56-15.1L320.56-15.1Q319.66-14.05 317.96-12.23 316.26-10.4 315.26-9.3L315.26-9.3Q312.46-6.25 312.11-4.2L312.11-4.2Q312.01-3.8 312.01-2.68 312.01-1.55 312.69-0.35 313.36 0.85 314.31 1.45 315.26 2.05 316.19 2.43 317.11 2.8 317.79 2.95 318.46 3.1 318.46 3.15L318.46 3.15Q318.46 3.5 317.36 3.95L317.36 3.95Q315.31 4.7 313.09 4.7 310.86 4.7 308.76 3.1L308.76 3.1Q305.91 0.9 305.91-2.75L305.91-2.75Q305.91-5 307.06-7.2L307.06-7.2Q309.11-11.1 316.66-17.9L316.66-17.9Q314.81-19.75 314.81-21.85 314.81-23.95 316.39-25.4 317.96-26.85 320.11-26.85L320.11-26.85Q322.06-26.85 323.51-25.3L323.51-25.3Q324.46-24.25 324.46-22.65 324.46-21.05 323.41-19.05L323.41-19.05Q328.76-16.65 330.66-15.3ZM319.81-20.95L319.81-20.95Q321.01-22.2 321.01-22.75L321.01-22.75Q321.01-24 319.91-24.1L319.91-24.1Q318.66-24.1 318.66-22.7L318.66-22.7Q318.66-21.85 319.81-20.95ZM344.86-11.2Q347.96-11.85 349.49-13.7 351.01-15.55 351.01-17.28 351.01-19 350.09-19.63 349.16-20.25 348.06-20.25L348.06-20.25Q345.71-20.25 343.94-17.63 342.16-15 342.16-11.38 342.16-7.75 343.89-5.98 345.61-4.2 348.16-4.2L348.16-4.2Q351.91-4.2 355.36-6.8 358.81-9.4 360.96-13.6L360.96-13.6Q362.06-12.55 362.96-11L362.96-11Q361.31-7.25 357.11-3.65L357.11-3.65Q355.01-1.9 352.14-0.8 349.26 0.3 346.21 0.3L346.21 0.3Q341.21 0.3 338.31-2.75L338.31-2.75Q335.21-6.05 335.21-11.2 335.21-16.35 339.09-20.2 342.96-24.05 348.36-24.05L348.36-24.05Q352.21-24.05 354.61-22.38 357.01-20.7 357.06-17.85L357.06-17.85Q357.06-14 353.99-11.6 350.91-9.2 345.56-8.25L345.56-8.25 344.86-11.2ZM373.61-17.5L373.61-17.5Q373.61-19.7 371.58-19.7 369.56-19.7 368.36-17.1L368.36-17.1Q373.76-12.85 373.76-7.55L373.76-7.55Q373.76-3.7 371.61-1.7 369.46 0.3 366.21 0.3 362.96 0.3 361.46-1.73 359.96-3.75 359.96-6.85L359.96-6.85Q359.96-7.8 360.01-8.25L360.01-8.25 361.76-23.5Q363.56-24.05 365.41-24.05L365.41-24.05Q368.46-24.05 368.46-21.8L368.46-21.8 368.46-21.7Q370.46-24.05 373.56-24.05L373.56-24.05Q375.81-24.05 377.06-23.03 378.31-22 378.31-20.3 378.31-18.6 377.03-17.53 375.76-16.45 373.71-16.45L373.71-16.45Q373.61-16.45 373.51-16.45L373.51-16.45Q373.61-17 373.61-17.5ZM370.51-7.8Q370.51-10.7 367.51-13.6L367.51-13.6Q366.61-6.4 366.61-6.35L366.61-6.35Q366.61-4.25 368.31-4.25L368.31-4.25Q370.51-4.25 370.51-7.8L370.51-7.8ZM398.28-8.95Q396.71-4.9 393.78-2.33 390.86 0.25 387.11 0.25 383.36 0.25 381.48-2.23 379.61-4.7 379.61-7.9L379.61-7.9Q379.61-8.55 379.66-9.2L379.66-9.2 381.36-23.45Q382.96-24.05 384.76-24.05L384.76-24.05Q388.06-24.05 388.06-21.6L388.06-21.6Q388.06-21.5 387.23-14.93 386.41-8.35 386.41-7.3L386.41-7.3Q386.41-4.45 389.16-4.45L389.16-4.45Q391.51-4.45 393.11-7.1L393.11-7.1Q395.91-11.9 396.06-17.95L396.06-17.95 395.61-17.95Q393.51-17.95 392.41-18.9L392.41-18.9Q391.16-20 391.16-21.55 391.16-23.1 392.11-24.05L392.11-24.05Q393.26-25.05 394.86-25.05L394.86-25.05Q398.66-25.05 399.61-21.1L399.61-21.1Q401.11-21.3 401.76-21.5L401.76-21.5 401.76-18.65 399.91-18.35 399.91-17.5Q399.86-13 398.28-8.95ZM394.01-21.55L394.01-21.55Q394.01-20.7 395.46-20.7L395.46-20.7Q395.61-20.7 395.76-20.7L395.76-20.7Q395.41-22.05 394.71-22.05 394.01-22.05 394.01-21.55ZM405.95-36.83Q407.1-38 408.75-38 410.4-38 411.58-36.83 412.75-35.65 412.75-34 412.75-32.35 411.58-31.2 410.4-30.05 408.75-30.05 407.1-30.05 405.95-31.2 404.8-32.35 404.8-34 404.8-35.65 405.95-36.83ZM403.9-22.15Q404.4-23.05 405.8-23.53 407.2-24 408.58-24 409.95-24 411-23.65L411-23.65Q409.05-8.6 409.05-8.45L409.05-8.45Q408.8-7.45 408.8-6.78 408.8-6.1 408.9-5.6L408.9-5.6Q409.1-4.3 410.73-4.3 412.35-4.3 413.73-6.43 415.1-8.55 415.8-11.25L415.8-11.25Q416.15-11.05 416.9-10.05 417.65-9.05 417.8-8.55L417.8-8.55Q416.8-4.55 414.4-2.1L414.4-2.1Q412 0.35 408.65 0.35 405.3 0.35 403.68-1.3 402.05-2.95 402.05-5.55L402.05-5.55Q402.05-6.1 402.1-6.7L402.1-6.7 403.9-22.15ZM429.35-16.95L429.35-16.95Q429.35-20.2 426.45-20.2L426.45-20.2Q424.3-20.2 422.6-17.75L422.6-17.75Q420.8-15.1 420.8-11.55 420.8-8 422.38-6.08 423.95-4.15 426.7-4.15L426.7-4.15Q430-4.15 433.68-6.85 437.35-9.55 439.6-13.55L439.6-13.55Q440.6-12.8 441.55-10.8L441.55-10.8Q440.1-7.9 436.15-4.3L436.15-4.3Q434.1-2.4 431.05-1.1L431.05-1.1Q427.75 0.3 424.45 0.3L424.45 0.3Q420 0.3 416.93-2.75 413.85-5.8 413.85-10.7L413.85-10.7Q413.85-16.65 417.85-20.35 421.85-24.05 426.8-24.05L426.8-24.05Q430.65-24.05 432.9-22.45 435.15-20.85 435.15-18.25L435.15-18.25Q435.15-16.55 433.95-15.3L433.95-15.3Q431.75-13.1 428.6-13.1L428.6-13.1Q429.35-15.6 429.35-16.95ZM446.45-11.2Q449.55-11.85 451.07-13.7 452.6-15.55 452.6-17.28 452.6-19 451.67-19.63 450.75-20.25 449.65-20.25L449.65-20.25Q447.3-20.25 445.52-17.63 443.75-15 443.75-11.38 443.75-7.75 445.47-5.98 447.2-4.2 449.75-4.2L449.75-4.2Q453.5-4.2 456.95-6.8 460.4-9.4 462.55-13.6L462.55-13.6Q463.65-12.55 464.55-11L464.55-11Q462.9-7.25 458.7-3.65L458.7-3.65Q456.6-1.9 453.72-0.8 450.85 0.3 447.8 0.3L447.8 0.3Q442.8 0.3 439.9-2.75L439.9-2.75Q436.8-6.05 436.8-11.2 436.8-16.35 440.67-20.2 444.55-24.05 449.95-24.05L449.95-24.05Q453.8-24.05 456.2-22.38 458.6-20.7 458.65-17.85L458.65-17.85Q458.65-14 455.57-11.6 452.5-9.2 447.15-8.25L447.15-8.25 446.45-11.2Z" opacity="1" transform="matrix(1,0,0,1,0,0)" fill="#ffffff" class="slogan-text-1" data-fill-palette-color="secondary" id="text-1"></path></svg></g></svg></g></svg></g></svg></g><g transform="matrix(1,0,0,1,93.21219014719932,0)"><svg viewBox="0 0 209.09561970560128 209.09561970560128" height="209.09561970560128" width="209.09561970560128"><g><svg></svg></g><g id="icon-0"><svg viewBox="0 0 209.09561970560128 209.09561970560128" height="209.09561970560128" width="209.09561970560128"><g><path transform="scale(2.09096,2.09096)" d="M30 100c-16.569 0-30-13.431-30-30v-40c0-16.569 13.431-30 30-30h40c16.569 0 30 13.431 30 30v40c0 16.569-13.431 30-30 30z" fill="#ffffff" fill-rule="nonzero" stroke="none" stroke-width="1" stroke-linecap="butt" stroke-linejoin="miter" stroke-miterlimit="10" stroke-dasharray="" stroke-dashoffset="0" font-family="none" font-weight="none" font-size="none" text-anchor="none" style="mix-blend-mode: normal" data-fill-palette-color="accent"></path></g><g transform="matrix(1,0,0,1,41.81912394112027,41.81912394112027)"><svg viewBox="0 0 125.45737182336075 125.45737182336075" height="125.45737182336075" width="125.45737182336075"><g><svg xmlns="http://www.w3.org/2000/svg" xmlns:xlink="http://www.w3.org/1999/xlink" version="1.0" x="0" y="0" viewBox="10 10 80 80" enable-background="new 0 0 100 100" xml:space="preserve" height="125.45737182336075" width="125.45737182336075" class="icon-cg-0" data-fill-palette-color="quaternary" id="cg-0"><path fill="none" stroke="#398378" stroke-linecap="round" stroke-linejoin="round" stroke-miterlimit="10" d="M78.33 56.667l1.945 15.555L78.33 56.667z"></path><path fill="none" stroke="#398378" stroke-linecap="round" stroke-linejoin="round" stroke-miterlimit="10" d="M75.689 22.862v-3.157C75.021 14.236 70.37 10 64.722 10c-5.647 0-10.298 4.235-10.968 9.704v3.157c-1.433 0.509-2.461 1.859-2.461 3.461 0 3.145 1.596 5.689 3.582 5.778 1.828 5.631 5.549 9.496 9.847 9.496 4.297 0 8.016-3.864 9.846-9.496 1.986-0.089 3.583-2.633 3.583-5.778C78.15 24.721 77.118 23.371 75.689 22.862z"></path><path fill="none" stroke="#398378" stroke-linecap="round" stroke-linejoin="round" stroke-miterlimit="10" d="M63.359 24.58h-6.806v1.945c0 1.071 0.877 1.947 1.946 1.947h2.917c1.069 0 1.942-0.876 1.942-1.947V24.58z"></path><path fill="none" stroke="#398378" stroke-linecap="round" stroke-linejoin="round" stroke-miterlimit="10" d="M56.554 24.58l-2.8-1.718L56.554 24.58z"></path><path fill="none" stroke="#398378" stroke-linecap="round" stroke-linejoin="round" stroke-miterlimit="10" d="M66.081 24.58h6.806v1.945c0 1.071-0.875 1.947-1.944 1.947h-2.916c-1.071 0-1.945-0.876-1.945-1.947V24.58z"></path><path fill="none" stroke="#398378" stroke-linecap="round" stroke-linejoin="round" stroke-miterlimit="10" d="M72.889 24.58l2.801-1.718L72.889 24.58z"></path><path fill="none" stroke="#398378" stroke-linecap="round" stroke-linejoin="round" stroke-miterlimit="10" d="M63.359 24.58h2.722H63.359z"></path><path fill="none" stroke="#398378" stroke-linecap="round" stroke-linejoin="round" stroke-miterlimit="10" d="M62.292 35.745c1.342 1.341 3.519 1.341 4.86 0C65.811 37.086 63.634 37.086 62.292 35.745z"></path><path fill="none" stroke="#398378" stroke-linecap="round" stroke-linejoin="round" stroke-miterlimit="10" d="M75.689 22.862c-3.038 0-5.788-1.231-7.78-3.221l0 0c-2.147-2.147-4.961-3.222-7.777-3.222-3.522 0-6.378 2.885-6.378 6.443v-3.157C54.424 14.236 59.074 10 64.722 10c5.648 0 10.299 4.235 10.968 9.704V22.862z"></path><path fill="none" stroke="#398378" stroke-linecap="round" stroke-linejoin="round" stroke-miterlimit="10" d="M64.722 48.889c3.219 0 6.066-1.571 7.834-3.981-0.535-0.258-1.031-0.585-1.446-1.002-0.941-0.937-1.52-2.235-1.52-3.668v-0.429c-1.469 1.139-3.119 1.788-4.868 1.788-1.748 0-3.398-0.649-4.866-1.788v0.429c0 1.433-0.583 2.732-1.521 3.668-0.417 0.417-0.911 0.744-1.449 0.999C58.656 47.317 61.503 48.889 64.722 48.889z"></path><path fill="none" stroke="#398378" stroke-linecap="round" stroke-linejoin="round" stroke-miterlimit="10" d="M72.792 45.033c-0.084-0.034-0.155-0.089-0.236-0.125-1.768 2.41-4.615 3.981-7.834 3.981s-6.065-1.571-7.836-3.984c-0.078 0.04-0.151 0.092-0.236 0.128l-3.415 1.415c2.415 3.8 6.651 6.33 11.486 6.33 4.837 0 9.072-2.529 11.489-6.33L72.792 45.033z"></path><path fill="none" stroke="#398378" stroke-linecap="round" stroke-linejoin="round" stroke-miterlimit="10" d="M58.889 85.556H10v2.224C10 89.002 11.001 90 12.223 90h44.444c1.222 0 2.222-0.998 2.222-2.221V85.556z"></path><path fill="none" stroke="#398378" stroke-linecap="round" stroke-linejoin="round" stroke-miterlimit="10" d="M58.889 82.219c0 1.833-1.5 3.333-3.333 3.333H13.335c-1.834 0-3.335-1.5-3.335-3.333V57.774c0-1.833 1.5-3.335 3.335-3.335h42.221c1.833 0 3.333 1.502 3.333 3.335V82.219z"></path><path fill="none" stroke="#398378" stroke-linecap="round" stroke-linejoin="round" stroke-miterlimit="10" d="M55.556 54.439c1.833 0 3.333 1.502 3.333 3.335v14.447H90l-0.004-14.826c0-2.469-1-4.704-2.614-6.321L76.21 46.448c-2.417 3.8-6.652 6.33-11.489 6.33-4.835 0-9.071-2.529-11.486-6.33l-11.172 4.626c-0.938 0.938-1.66 2.089-2.107 3.365H55.556z"></path><circle fill="none" stroke="#398378" stroke-linecap="round" stroke-linejoin="round" stroke-miterlimit="10" cx="34.444" cy="70" r="3.3"></circle></svg></g></svg></g></svg></g></svg></g><g></g></svg></g><defs></defs></svg><rect width="256.84342541302516" height="247.2" fill="none" stroke="none" visibility="hidden"></rect></g></svg></g></svg>